# xmcd
#
# Track frame offsets:
#	255
#	8258
#	17075
#	28161
#	51766
#	65767
#	77158
#	91616
#	101560
#	112375
#	121388
#	136140
#	153070
#	163915
#
# Disc length: 2356 seconds
#
# Revision: 1
# Processed by: cddbd v1.5.1PL2 Copyright (c) Steve Scherf et al.
# Submitted via: audiograbber 1.83.01
#
DISCID=ac09310e
DTITLE=Demis - Demis
DYEAR=1992
DGENRE=Vocal
TTITLE0=Het leukste moment
TTITLE1=Ik ben verliefd
TTITLE2=Als ik de Lotto won
TTITLE3=Opa
TTITLE4=Blijf bij mij
TTITLE5=Huiswerk
TTITLE6=Ode aan Mike
TTITLE7=Mijn lievelingskostje
TTITLE8=Mijn hond en ik
TTITLE9=Ik wil eruit
TTITLE10=Ik hou van jou
TTITLE11=Jij bent alles voor mij
TTITLE12=Waarom mamma
TTITLE13=Als ik groot ben
EXTD=
EXTT0=
EXTT1=
EXTT2=
EXTT3=
EXTT4=
EXTT5=
EXTT6=
EXTT7=
EXTT8=
EXTT9=
EXTT10=
EXTT11=
EXTT12=
EXTT13=
PLAYORDER=
